<svg xmlns="http://www.w3.org/2000/svg" height="15" width="12"><rect id="backgroundrect" width="100%" height="100%" x="0" y="0" fill="none" stroke="none" class="" style=""/><g class="currentLayer" style=""><title>Layer 1</title><g class=""><path color="currentColor" d="m4.673183203304254,0.9159970374630848 h2.5443814359314167 v0.4267397904361097 h0.9188624952117341 v-0.48647872809711046 c0.00011614254589545192,-0.4721228297189476 -0.38503718945667054,-0.8562581064743432 -0.858464505874782,-0.8562581064743432 h-2.6651774146053215 c-0.4734273164181116,0 -0.8585806484206774,0.3841352767553959 -0.8585806484206774,0.8562581064743432 v0.48647872809711046 h0.9189786377576302 zm0,0 " id="svg_1" class=""/><g class=""><path color="currentColor" d="m10.234888548314352,4.971761502851022 h-8.626226706805129 c-0.23636518596977749,0 -0.4224374679865858,0.20098216236336663 -0.4033888713495474,0.4358858458728212 l0.7211752152455122,8.88859821290889 c0.04018790777216958,0.4962036714372731 0.45542409189731625,0.8783707826691942 0.954288231523848,0.8783707826691942 h6.081961383685213 c0.49886416936092687,0 0.9141003534860733,-0.3821671112319211 0.954288231523848,-0.8784865483947154 l0.7211752449799066,-8.888482447183371 c0.01916473918293433,-0.23490368350945437 -0.16690754283387435,-0.4358858458728212 -0.40327272880365167,-0.4358858458728212 zm-6.537501618128424,9.254788646329509 c-0.009640425997217513,0.0005788582655290576 -0.019280881728829757,0.0009261850800155164 -0.028805194914546608,0.0009261850800155164 c-0.2408950426036476,0 -0.44311217920373985,-0.18697362043761273 -0.4580955191248852,-0.42986567249064295 l-0.4519395479108998,-7.297064918627751 c-0.015564112119412058,-0.2525012000297492 0.17712871129496377,-0.4698073670189088 0.4303356665921873,-0.48532098192812984 c0.252393898007166,-0.015282053820256014 0.4713366019200201,0.1763224920174342 0.48690071403943225,0.42893948741062693 l0.4518234053650045,7.297064918627751 c0.015680254665307515,0.2525012000297492 -0.1770125687490682,0.4696916012933872 -0.43021952404629193,0.48532098192812984 zm2.6889881827024165,-0.45707233698765676 c0,0.25284852684423537 -0.20570162111771945,0.45788272670422836 -0.45948931887881533,0.45788272670422836 s-0.45948931887881533,-0.20503419985999277 -0.45948931887881533,-0.45788272670422836 v-7.297180713991194 c0,-0.25296429256975694 0.20570162111771945,-0.4579985220676722 0.45948931887881533,-0.4579985220676722 c0.2536715552152003,0 0.45948931887881533,0.20503422949791533 0.45948931887881533,0.4579985220676722 zm2.698628608699634,-7.270205580945223 l-0.4314971515199315,7.297064948265674 c-0.014286454911377837,0.24335511495511516 -0.2168520191491568,0.43102335938377834 -0.4582116616707811,0.43102335938377834 c-0.009059713267740252,0 -0.018235569081375937,-0.00023153145104259869 -0.027411424895011662,-0.0006946239910503569 c-0.2533230978431191,-0.014934727005769545 -0.44659666372136697,-0.23166203572940008 -0.43161329406582694,-0.4841632357591492 l0.43138100897403586,-7.297180713991194 c0.014867197375249835,-0.2525012000297492 0.23160304424411637,-0.44514769667297616 0.4856230568313977,-0.43021296966720657 c0.2533230978431191,0.014818961280248245 0.44659666372136697,0.23166203572940008 0.43172946634611703,0.4841632357591492 zm0,0 " id="svg_2" class=""/><path color="currentColor" d="m11.823820267794176,3.5584030707473473 l-0.30175766159297135,-0.9016411753951037 c-0.07956272851988674,-0.23768223874950078 -0.3028030039748199,-0.398028023317706 -0.5542677021460326,-0.398028023317706 h-10.092155560832667 c-0.25134855562531727,0 -0.474704973626146,0.16034578456820542 -0.5541515596001372,0.398028023317706 l-0.30175766159297135,0.9016411753951037 c-0.05819113229296512,0.17389126359187415 0.01753865433721375,0.35125567677692254 0.15889317194798253,0.4397063815563267 c0.05761038982909312,0.036005422757161225 0.12579043522575156,0.05765500641200451 0.20070716456587284,0.05765500641200451 h11.08488947273707 c0.07491672934012114,0 0.1432129172826751,-0.021649583654843308 0.20070716456587284,-0.05777080177544839 c0.1413545176107688,-0.08845067514148164 0.21708430424094785,-0.2658151179644527 0.15889317194798253,-0.439590586192883 zm0,0 " id="svg_3" class=""/></g></g></g></svg>
